# xmcd
#
# Track frame offsets: 
#        182
#        12745
#        24287
#        37620
#        49572
#        62770
#        73872
#        83820
#        98550
#        109627
#        121992
#        132417
#        143750
#        155765
#        169892
#        181887
#        193570
#        207757
#        219140
#        233865
#        245460
#        260310
#        272495
#        289367
#        303595
#
# Disc length: 4220 seconds
#
# Revision: 4
# Processed by: cddbd v1.5.2PL0 Copyright (c) Steve Scherf et al.
# Submitted via: ExactAudioCopyFreeDBPlugin 1.0
#
DISCID=5c107a19
DTITLE=Sam and Dave - Sweat 'n' Soul, 1965-1971
DYEAR=1993
DGENRE=Soul
TTITLE0=I Thank You
TTITLE1=Wrap it Up
TTITLE2=Broke Down Piece of Man
TTITLE3=Hold it Baby
TTITLE4=Come on In
TTITLE5=This is Your World
TTITLE6=You Don't Know What You Mean to Me
TTITLE7=Everybody Got to Believe in Somebody
TTITLE8=Can't You Find Another Way (Of Doing It)
TTITLE9=Ain't That a Lot of Love
TTITLE10=Don't Turn Your Heater On
TTITLE11=Soul Sister, Brown Sugar
TTITLE12=Born Again
TTITLE13=You Left the Water Running
TTITLE14=Holdin' On
TTITLE15=I'm Not an Indian Giver
TTITLE16=One Part Love - Two Parts Pain
TTITLE17=Baby - Baby Don't Stop Now
TTITLE18=Standing in the Safety Zone
TTITLE19=Knock it Out the Park (with The Dixie Flyers)
TTITLE20=Don't Pull Your Love
TTITLE21=Jody Ryder Got Killed
TTITLE22=Starting All Over Again
TTITLE23=Stop
TTITLE24=Shop Around
EXTD=
EXTT0=
EXTT1=
EXTT2=
EXTT3=
EXTT4=
EXTT5=
EXTT6=
EXTT7=
EXTT8=
EXTT9=
EXTT10=
EXTT11=
EXTT12=
EXTT13=
EXTT14=
EXTT15=
EXTT16=
EXTT17=
EXTT18=
EXTT19=
EXTT20=
EXTT21=
EXTT22=
EXTT23=
EXTT24=
PLAYORDER=
